<?xml version="1.0" standalone="no"?>
<!DOCTYPE svg PUBLIC "-//W3C//DTD SVG 20010904//EN"
 "http://www.w3.org/TR/2001/REC-SVG-20010904/DTD/svg10.dtd">
<svg version="1.0" xmlns="http://www.w3.org/2000/svg"
 width="421.000000pt" height="421.000000pt" viewBox="0 0 421.000000 421.000000"
 preserveAspectRatio="xMidYMid meet">
<metadata>
Created by potrace 1.14, written by Peter Selinger 2001-2017
</metadata>
<g transform="translate(0.000000,421.000000) scale(0.100000,-0.100000)"
fill="#000000" stroke="none">
<path d="M2170 3400 c-243 -25 -440 -137 -617 -353 -13 -15 -23 -32 -23 -37 0
-6 -4 -10 -8 -10 -13 0 -90 -163 -122 -260 -17 -48 -38 -133 -47 -188 -13 -78
-21 -102 -34 -105 -22 -6 -49 -89 -31 -95 13 -4 15 -80 3 -122 l-7 -25 -7 30
c-9 38 -32 69 -46 60 -20 -12 -11 -49 18 -80 35 -35 36 -47 25 -257 -7 -138
-13 -155 -43 -125 -10 10 -11 9 -6 -5 4 -10 14 -20 24 -23 13 -4 19 -26 29
-93 25 -186 124 -400 277 -604 132 -174 228 -247 353 -268 206 -34 596 126
825 341 76 70 181 190 228 260 25 37 27 37 99 24 30 -5 40 -2 70 25 l35 30
-39 -25 c-47 -30 -60 -31 -86 -5 -20 20 -20 20 61 181 l81 161 59 26 c62 26
78 55 39 67 -26 8 -56 -8 -113 -64 l-49 -46 7 60 c8 72 24 118 39 112 8 -3 20
31 34 97 74 342 49 675 -65 864 -55 90 -145 186 -237 254 -45 32 -88 64 -96
71 -8 6 -17 11 -20 10 -3 -1 -32 11 -65 26 -154 73 -370 109 -545 91z m-173
-379 c176 -44 335 -68 518 -81 88 -6 190 -17 226 -25 157 -32 263 -124 305
-263 22 -69 20 -336 -2 -389 -9 -21 -27 -67 -40 -103 -16 -44 -23 -57 -24 -39
0 32 -5 36 -105 82 -110 50 -249 78 -417 82 -137 4 -137 4 -170 -23 -18 -15
-36 -31 -40 -36 -4 -6 -17 2 -30 19 -13 15 -25 31 -28 34 -28 34 -142 41 -180
11 -30 -23 -40 -25 -40 -6 0 21 -76 85 -126 107 -47 20 -128 44 -179 54 -100
19 -146 25 -195 25 l-56 0 4 38 c10 108 26 183 57 264 80 207 184 294 340 283
33 -2 115 -18 182 -34z m-287 -621 c41 -12 79 -25 85 -29 5 -5 22 -11 36 -14
15 -4 45 -25 68 -48 44 -42 44 -43 28 -121 -8 -40 -18 -29 -12 13 6 42 4 49
-22 73 -51 48 -154 85 -235 86 -55 0 -139 -35 -178 -75 -19 -19 -30 -35 -26
-35 5 0 2 -8 -5 -17 -10 -11 -10 -14 -1 -9 7 4 12 1 12 -8 0 -9 5 -16 10 -16
6 0 10 4 10 10 0 20 66 84 105 101 44 20 131 25 155 8 12 -8 9 -9 -11 -5 -36
8 -109 -32 -132 -71 -45 -78 -8 -187 71 -211 55 -17 76 -14 27 3 -48 17 -82
56 -90 105 -8 46 6 80 45 113 47 40 99 37 148 -7 35 -32 37 -38 37 -94 0 -45
-5 -65 -19 -81 -14 -15 -15 -20 -5 -16 34 13 64 104 49 154 -14 49 14 22 36
-34 16 -43 16 -44 -12 -96 -48 -87 -118 -156 -177 -174 -64 -19 -88 -19 -162
0 -130 34 -215 101 -215 169 0 17 14 84 30 150 33 130 36 152 18 158 -7 3 -3
13 11 27 23 23 28 23 135 18 68 -3 140 -14 186 -27z m438 -134 c53 -28 72 -67
72 -153 1 -152 48 -298 113 -347 65 -50 131 -69 257 -73 112 -5 117 -4 170 24
43 22 62 41 88 83 23 40 32 48 32 32 0 -29 11 -27 34 4 15 21 16 30 7 50 -23
50 -6 138 32 165 l23 17 -8 -72 c-31 -277 -43 -320 -128 -464 -51 -85 -68
-106 -98 -119 -49 -20 -93 -6 -162 53 -61 53 -122 83 -178 89 -20 3 -95 11
-167 20 -71 8 -134 15 -140 15 -5 1 4 7 20 14 35 15 72 84 61 112 -6 15 -11
12 -37 -19 -23 -27 -39 -37 -72 -42 -55 -9 -116 8 -152 40 -23 22 -26 32 -23
71 3 38 1 42 -9 27 -29 -39 -10 -122 37 -161 12 -10 4 -11 -45 -6 -123 14
-196 8 -270 -21 -80 -31 -129 -33 -180 -9 -69 33 -93 99 -102 284 l-6 115 41
-37 c83 -75 308 -119 387 -76 37 21 75 56 112 105 15 21 31 40 35 43 11 9 78
157 78 173 0 15 32 47 65 65 28 16 81 15 113 -2z m443 -20 c110 -10 239 -51
273 -88 26 -29 28 -35 23 -87 -4 -31 -8 -63 -10 -71 -2 -8 -9 -40 -16 -70 -16
-73 -58 -149 -98 -176 -18 -12 -30 -24 -27 -27 3 -3 -4 -3 -17 0 -12 4 -20 2
-17 -3 4 -5 -38 -9 -98 -9 -57 0 -104 4 -104 9 0 4 -11 6 -25 4 -15 -3 -22 -1
-18 5 4 6 -2 8 -15 5 -12 -4 -20 -3 -18 1 3 4 -16 17 -40 31 -59 31 -100 101
-119 205 -12 65 -7 180 9 215 9 19 13 25 10 12 -10 -40 12 -47 146 -50 170 -2
259 -8 294 -17 34 -9 28 10 -8 26 -22 10 17 7 92 -7 47 -9 40 11 -10 30 -48
18 -227 56 -264 56 -12 0 -26 4 -29 10 -3 5 0 8 7 6 7 -3 43 -7 79 -10z m-48
-83 c-7 -2 -19 -2 -25 0 -7 3 -2 5 12 5 14 0 19 -2 13 -5z m-688 -637 c17 -2
86 -11 155 -20 69 -9 188 -23 265 -31 l140 -14 -175 4 c-130 3 -215 11 -330
30 -153 27 -235 51 -135 40 28 -3 64 -7 80 -9z m-150 -6 c-10 -17 42 -97 103
-157 134 -132 289 -146 497 -44 44 22 99 56 123 76 28 25 43 32 46 23 2 -7 7
-21 10 -32 21 -64 -63 -173 -177 -229 -98 -48 -149 -56 -185 -30 -33 24 -197
47 -269 37 -61 -8 -93 7 -150 69 -79 86 -86 225 -14 285 18 15 24 16 16 2z"/>
<path d="M1594 2590 c-40 -9 -94 -47 -94 -65 0 -10 13 -7 49 12 69 35 123 26
259 -43 91 -47 108 -53 120 -40 23 23 -3 55 -71 87 -109 50 -193 66 -263 49z"/>
<path d="M1705 2247 c9 -33 -19 -56 -46 -39 -17 11 -21 9 -29 -14 -13 -34 3
-88 33 -109 37 -26 94 -19 128 14 61 62 16 171 -71 171 -16 0 -19 -5 -15 -23z"/>
<path d="M1400 2216 c-23 -18 -40 -53 -40 -81 0 -36 15 -23 45 35 25 49 23 68
-5 46z"/>
<path d="M2303 2024 c-14 -6 -18 -44 -5 -44 133 -1 316 -13 377 -24 123 -23
130 -18 20 15 -54 16 -144 33 -200 39 -55 5 -118 12 -140 15 -22 2 -46 2 -52
-1z"/>
<path d="M1829 1258 c56 -61 119 -83 236 -83 93 0 104 2 160 31 33 18 71 41
85 53 l25 22 -42 -20 c-206 -100 -340 -100 -459 0 l-39 33 34 -36z"/>
</g>
</svg>
